<svg xmlns="http://www.w3.org/2000/svg" xmlns:xlink="http://www.w3.org/1999/xlink" version="1.1" width="1000" height="1000" viewBox="0 0 1000 1000" xml:space="preserve">
<desc>Created with Fabric.js 3.5.0</desc>
<defs>
</defs>
<rect x="0" y="0" width="100%" height="100%" fill="#ffffff"/>
<g transform="matrix(1 0 0 1 471.1943 511.1939)" style="" id="366406">
		
<path xml:space="preserve" font-family="Montserrat" font-size="100" font-style="normal" font-weight="bold" style="stroke: none; stroke-width: 1; stroke-dasharray: none; stroke-linecap: butt; stroke-dashoffset: 0; stroke-linejoin: miter; stroke-miterlimit: 4; is-custom-font: none; font-file-url: none; fill: rgb(0,0,0); fill-rule: nonzero; opacity: 1; white-space: pre;" d="M-137.92 31.41L-155.32 31.41L-168.82 11.91L-169.62 11.91L-183.72 11.91L-183.72 31.41L-199.92 31.41L-199.92-38.59L-169.62-38.59Q-160.32-38.59-153.47-35.49Q-146.62-32.39-142.92-26.69Q-139.22-20.99-139.22-13.19L-139.22-13.19Q-139.22-5.39-142.97 0.26Q-146.72 5.91-153.62 8.91L-153.62 8.91L-137.92 31.41ZM-155.62-13.19Q-155.62-19.09-159.42-22.24Q-163.22-25.39-170.52-25.39L-170.52-25.39L-183.72-25.39L-183.72-0.99L-170.52-0.99Q-163.22-0.99-159.42-4.19Q-155.62-7.39-155.62-13.19L-155.62-13.19ZM-74.82 4.71Q-74.82 5.01-75.12 8.91L-75.12 8.91L-115.82 8.91Q-114.72 13.91-110.62 16.81Q-106.52 19.71-100.42 19.71L-100.42 19.71Q-96.22 19.71-92.97 18.46Q-89.72 17.21-86.92 14.51L-86.92 14.51L-78.62 23.51Q-86.22 32.21-100.82 32.21L-100.82 32.21Q-109.92 32.21-116.92 28.66Q-123.92 25.11-127.72 18.81Q-131.52 12.51-131.52 4.51L-131.52 4.51Q-131.52-3.39-127.77-9.74Q-124.02-16.09-117.47-19.64Q-110.92-23.19-102.82-23.19L-102.82-23.19Q-94.92-23.19-88.52-19.79Q-82.12-16.39-78.47-10.04Q-74.82-3.69-74.82 4.71L-74.82 4.71ZM-102.72-11.39Q-108.02-11.39-111.62-8.39Q-115.22-5.39-116.02-0.19L-116.02-0.19L-89.52-0.19Q-90.32-5.29-93.92-8.34Q-97.52-11.39-102.72-11.39L-102.72-11.39ZM-33.92 17.81L-29.72 28.81Q-32.02 30.51-35.37 31.36Q-38.72 32.21-42.42 32.21L-42.42 32.21Q-52.02 32.21-57.27 27.31Q-62.52 22.41-62.52 12.91L-62.52 12.91L-62.52-9.19L-70.82-9.19L-70.82-21.19L-62.52-21.19L-62.52-34.29L-46.92-34.29L-46.92-21.19L-33.52-21.19L-33.52-9.19L-46.92-9.19L-46.92 12.71Q-46.92 16.11-45.17 17.96Q-43.42 19.81-40.22 19.81L-40.22 19.81Q-36.52 19.81-33.92 17.81L-33.92 17.81ZM0.78-23.19Q13.28-23.19 19.98-17.24Q26.68-11.29 26.68 0.71L26.68 0.71L26.68 31.41L12.08 31.41L12.08 24.71Q7.68 32.21-4.32 32.21L-4.32 32.21Q-10.52 32.21-15.07 30.11Q-19.62 28.01-22.02 24.31Q-24.42 20.61-24.42 15.91L-24.42 15.91Q-24.42 8.41-18.77 4.11Q-13.12-0.19-1.32-0.19L-1.32-0.19L11.08-0.19Q11.08-5.29 7.98-8.04Q4.88-10.79-1.32-10.79L-1.32-10.79Q-5.62-10.79-9.77-9.44Q-13.92-8.09-16.82-5.79L-16.82-5.79L-22.42-16.69Q-18.02-19.79-11.87-21.49Q-5.72-23.19 0.78-23.19L0.78-23.19ZM-0.42 21.71Q3.58 21.71 6.68 19.86Q9.78 18.01 11.08 14.41L11.08 14.41L11.08 8.91L0.38 8.91Q-9.22 8.91-9.22 15.21L-9.22 15.21Q-9.22 18.21-6.87 19.96Q-4.52 21.71-0.42 21.71L-0.42 21.71ZM40.78 31.41L40.78-22.39L56.38-22.39L56.38 31.41L40.78 31.41ZM48.58-29.89Q44.28-29.89 41.58-32.39Q38.88-34.89 38.88-38.59L38.88-38.59Q38.88-42.29 41.58-44.79Q44.28-47.29 48.58-47.29L48.58-47.29Q52.88-47.29 55.58-44.89Q58.28-42.49 58.28-38.89L58.28-38.89Q58.28-34.99 55.58-32.44Q52.88-29.89 48.58-29.89L48.58-29.89ZM70.88 31.41L70.88-42.79L86.48-42.79L86.48 31.41L70.88 31.41ZM100.98 31.41L100.98-42.79L116.58-42.79L116.58 31.41L100.98 31.41ZM200.68 30.31L207.88 38.91Q204.48 43.11 199.63 45.31Q194.78 47.51 188.98 47.51L188.98 47.51Q181.18 47.51 174.88 44.16Q168.58 40.81 160.48 32.31L160.48 32.31Q150.98 31.11 143.53 26.21Q136.08 21.31 131.93 13.56Q127.78 5.81 127.78-3.59L127.78-3.59Q127.78-13.89 132.73-22.14Q137.68-30.39 146.43-35.09Q155.18-39.79 166.08-39.79L166.08-39.79Q176.98-39.79 185.68-35.09Q194.38-30.39 199.38-22.14Q204.38-13.89 204.38-3.59L204.38-3.59Q204.38 8.61 197.53 17.81Q190.68 27.01 179.38 30.61L179.38 30.61Q181.88 33.21 184.23 34.36Q186.58 35.51 189.28 35.51L189.28 35.51Q195.78 35.51 200.68 30.31L200.68 30.31ZM144.18-3.59Q144.18 2.91 147.03 8.01Q149.88 13.11 154.88 15.96Q159.88 18.81 166.08 18.81L166.08 18.81Q172.28 18.81 177.28 15.96Q182.28 13.11 185.13 8.01Q187.98 2.91 187.98-3.59L187.98-3.59Q187.98-10.09 185.13-15.19Q182.28-20.29 177.28-23.14Q172.28-25.99 166.08-25.99L166.08-25.99Q159.88-25.99 154.88-23.14Q149.88-20.29 147.03-15.19Q144.18-10.09 144.18-3.59L144.18-3.59Z"/></g>
<g transform="matrix(5.2218 0 0 5.2218 110.0601 498.8121)" id="891262">
<path style="stroke: none; stroke-width: 1; stroke-dasharray: none; stroke-linecap: butt; stroke-dashoffset: 0; stroke-linejoin: miter; stroke-miterlimit: 4; is-custom-font: none; font-file-url: none; fill: rgb(97,93,255); fill-rule: nonzero; opacity: 1;" transform=" translate(-12.3725, -13.2132)" d="M 20.1369 26 C 22.8983 26 25.1842 23.7425 24.6732 21.0288 C 24.3528 19.3274 23.8679 17.6594 23.2235 16.0502 C 21.9602 12.8958 20.1087 10.0295 17.7745 7.61522 C 15.4403 5.2009 12.6692 3.28575 9.61949 1.97913 C 8.11383 1.33406 6.55481 0.843538 4.96489 0.512196 C 2.26154 -0.0511821 0 2.23858 0 5 V 21 C 0 23.7614 2.23858 26 5 26 H 20.1369 Z" stroke-linecap="round"/>
</g>
<g transform="matrix(5.2218 0 0 5.2218 157.5427 498.8121)" id="764783">
<path style="stroke: none; stroke-width: 1; stroke-dasharray: none; stroke-linecap: butt; stroke-dashoffset: 0; stroke-linejoin: miter; stroke-miterlimit: 4; is-custom-font: none; font-file-url: none; fill: rgb(61,217,235); fill-rule: nonzero; opacity: 1;" transform=" translate(-21.4657, -13.2132)" d="M 13.7013 26 C 10.9399 26 8.65395 23.7425 9.16502 21.0288 C 9.48544 19.3274 9.97031 17.6594 10.6147 16.0502 C 11.878 12.8958 13.7295 10.0295 16.0637 7.61522 C 18.3979 5.2009 21.169 3.28575 24.2187 1.97913 C 25.7244 1.33406 27.2834 0.843538 28.8733 0.512196 C 31.5767 -0.0511821 33.8382 2.23858 33.8382 5 V 21 C 33.8382 23.7614 31.5996 26 28.8382 26 H 13.7013 Z" stroke-linecap="round"/>
</g>
</svg>